<?xml version="1.0" encoding="UTF-8"?>
<!DOCTYPE svg PUBLIC "-//W3C//DTD SVG 1.1//EN" "http://www.w3.org/Graphics/SVG/1.1/DTD/svg11.dtd">
<!-- Creator: CorelDRAW -->
<svg xmlns="http://www.w3.org/2000/svg" xml:space="preserve" width="2048px" height="2048px" style="shape-rendering:geometricPrecision; text-rendering:geometricPrecision; image-rendering:optimizeQuality; fill-rule:evenodd; clip-rule:evenodd"
viewBox="0 0 2048 2048"
 xmlns:xlink="http://www.w3.org/1999/xlink">
 <defs>
  <style type="text/css">
   <![CDATA[
    .fil7 {fill:none}
    .fil3 {fill:#5A5A5A}
    .fil1 {fill:#6C6C6C}
    .fil2 {fill:#393939;fill-rule:nonzero}
    .fil0 {fill:#3F3F3F;fill-rule:nonzero}
    .fil4 {fill:#414141;fill-rule:nonzero}
    .fil6 {fill:#5B5B5B;fill-rule:nonzero}
    .fil5 {fill:#616161;fill-rule:nonzero}
   ]]>
  </style>
 </defs>
 <g id="Layer_x0020_1">
  <metadata id="CorelCorpID_0Corel-Layer"/>
  <g id="_459766568">
   <g>
    <path id="_459771248" class="fil0" d="M546.91 1063.93l944.174 0c19.3016,0 36.8292,-5.45433 49.5189,-14.2417 12.6898,-8.78741 20.5654,-20.9256 20.5654,-34.291l0 -16.9866c0,-13.3654 -7.8756,-25.5036 -20.5654,-34.2886 -12.6898,-8.78741 -30.2173,-14.2417 -49.5189,-14.2417l-944.174 0 -26.2819 0 0 18.1996 0 77.6505 0 18.1996 26.2819 0z"/>
    <path id="_459771104" class="fil1" d="M1163.03 1120l546.852 0c53.9658,0 98.119,-50.8902 98.119,-113.092l0 -0.0011811c0,-62.2016 -44.1532,-113.092 -98.119,-113.092l-550.53 0c-17.2748,32.5583 -48.417,54.4052 -83.7745,54.4052l-63.006 0 0 117.374 66.6827 0c35.3575,0 66.5008,21.8469 83.7757,54.4052z"/>
    <path id="_459770984" class="fil2" d="M686.931 1063.93l804.153 0c19.3016,0 36.8292,-5.45433 49.5189,-14.2417 12.6898,-8.78741 20.5654,-20.9256 20.5654,-34.2898l0 -8.61497 -1040.54 0 0 38.9469 0 18.1996 166.303 0z"/>
    <path id="_459770072" class="fil3" d="M1163.03 1120l546.852 0c53.9658,0 98.119,-50.8902 98.119,-113.092l0 -0.0011811 -0.0011811 -0.120473 -795.428 0 0 58.8083 66.6827 0c35.3575,0 66.5008,21.8469 83.7757,54.4052z"/>
   </g>
   <g>
    <path id="_459769568" class="fil4" d="M559.986 864.001l-256.021 0 -31.8827 0 0.00708662 -32.0008 0.0271654 -114.963 0.00472441 -19.8366 17.7461 -8.78859c46.5945,-23.074 93.3261,-33.1595 139.115,-33.0981 50.2252,0.0673229 98.6859,12.3047 144.129,32.9445l18.8752 8.57363 0 20.5512 0 114.617 0 32.0008 -32.0008 0z"/>
    <path id="_459767792" class="fil4" d="M303.991 1184l256.021 0 32.0008 0 0 32.0008 0 114.617 0 20.5512 -18.8752 8.57363c-45.4429,20.6398 -93.9036,32.8772 -144.129,32.9445 -45.789,0.0614174 -92.5205,-10.024 -139.115,-33.0981l-17.7461 -8.78859 -0.00472441 -19.8366 -0.0271654 -114.963 -0.00708662 -32.0008 31.8827 0z"/>
    <polygon id="_459768800" class="fil5" points="272.001,799.006 592.001,799.006 624.002,799.006 624.002,831.007 624.002,1216 624.002,1248 592.001,1248 272.001,1248 240,1248 240,1216 240,831.007 240,799.006 "/>
   </g>
   <g>
    <path id="_459768248" class="fil0" d="M432 864.001l-128.035 0 -31.8827 0 0.00708662 -32.0008 0.0271654 -114.963 0.00472441 -19.8366 17.7461 -8.78859c46.5945,-23.074 93.3261,-33.1595 139.115,-33.0981 1.0063,0.0011811 2.0126,0.00826772 3.01772,0.0200788l0 208.667z"/>
    <path id="_459767000" class="fil0" d="M303.991 1184l128.009 0 0 208.667c-0.99567,0.011811 -1.9937,0.0188977 -2.99173,0.0200788 -45.789,0.0614174 -92.5205,-10.024 -139.115,-33.0981l-17.7461 -8.78859 -0.00472441 -19.8366 -0.0271654 -114.963 -0.00708662 -32.0008 31.8827 0z"/>
    <polygon id="_459767072" class="fil6" points="272.001,799.006 432,799.006 432,1248 272.001,1248 240,1248 240,1216 240,831.007 240,799.006 "/>
   </g>
  </g>
  <rect class="fil7" width="2048" height="2048"/>
 </g>
</svg>
